PathFileType	4	(X/Y/Z)	C:\Users\Kira\Nextcloud\Documents\MA\Daten\C3D\P01\post\Stand01\marker_experimental.trc																																																																																																																																																																																																																																																																																																																																																																																																																																																																																																																																																																																																																																																																																																																			
DataRate	CameraRate	NumFrames	NumMarkers	Units	OrigDataRate	OrigDataStartFrame	OrigNumFrames																																																																																																																																																																																																																																																																																																																																																																																																																																																																																																																																																																																																																																																																																																															
150	150	2	231	mm	150	112	150																																																																																																																																																																																																																																																																																																																																																																																																																																																																																																																																																																																																																																																																																																															
Frame#	Time	LFHD			LBHD			RFHD			RBHD			C7			T10			CLAV			STRN			RBAK			LSHO			LUPA			LELB			LFRA			LWRB			LWRA			LFIN			RSHO			RUPA			RELB			RFRA			RWRB			RWRA			RFIN			SACR			LASI			RASI			LT1			LT2			LT3			LS1			LS2			LS3			LHEE			LTOE			RT1			RT2			RT3			RS1			RS2			RS3			RHEE			RTOE			PELO			PELA			PELL			PELP			SACO			SACA			SACL			SACP			LFEO			LFEA			LFEL			LFEP			RFEO			RFEA			RFEL			RFEP			LTIO			LTIA			LTIL			LTIP			RTIO			RTIA			RTIL			RTIP			LFOO			LFOA			LFOL			LFOP			RFOO			RFOA			RFOL			RFOP			LTOO			LTOA			LTOL			LTOP			RTOO			RTOA			RTOL			RTOP			HEDO			HEDA			HEDL			HEDP			LCLO			LCLA			LCLL			LCLP			RCLO			RCLA			RCLL			RCLP			TRXO			TRXA			TRXL			TRXP			LHUO			LHUA			LHUL			LHUP			LRAO			LRAA			LRAL			LRAP			LHNO			LHNA			LHNL			LHNP			RHUO			RHUA			RHUL			RHUP			RRAO			RRAA			RRAL			RRAP			RHNO			RHNA			RHNL			RHNP			LPelvisAngles			RPelvisAngles			LFootProgressAngles			RFootProgressAngles			LHipAngles			RHipAngles			LKneeAngles			RKneeAngles			LAnkleAngles			RAnkleAngles			LFFootAngles			RFFootAngles			LAbsAnkleAngle			RAbsAnkleAngle			RNeckAngles			LNeckAngles			RSpineAngles			LSpineAngles			LShoulderAngles			LElbowAngles			LWristAngles			RShoulderAngles			RElbowAngles			RWristAngles			RThoraxAngles			LThoraxAngles			RHeadAngles			LHeadAngles			LHipPower			LKneePower			LAnklePower			RHipPower			RKneePower			RAnklePower			LWaistPower			RWaistPower			LNeckPower			RNeckPower			LShoulderPower			RShoulderPower			LElbowPower			RElbowPower			LWristPower			RWristPower			F_ForcePlate1			F_ForcePlate2			F_ForcePlate3			LGRF			RGRF			LHipForce			RHipForce			LKneeForce			RKneeForce			LAnkleForce			RAnkleForce			LWaistForce			RWaistForce			LNeckForce			RNeckForce			LShoulderForce			RShoulderForce			LElbowForce			RElbowForce			LWristForce			RWristForce			LNormalisedGRF			RNormalisedGRF			LGroundReactionForce			RGroundReactionForce			LHipMoment			RHipMoment			LKneeMoment			RKneeMoment			LAnkleMoment			RAnkleMoment			LWaistMoment			RWaistMoment			LNeckMoment			RNeckMoment			LShoulderMoment			RShoulderMoment			LElbowMoment			RElbowMoment			LWristMoment			RWristMoment			LKNE			RKNE			LANK			RANK			LKJC			RKJC			LAJC			RAJC			LTHI			RTHI			LTIB			RTIB			P_ForcePlate1			P_ForcePlate2			P_ForcePlate3			CentreOfMass			CentreOfMassFloor			funktRKJC			funktLKJC			funktRHIP			funktLHIP			LHJC			RHJC			LHF		
		X1	Y1	Z1	X2	Y2	Z2	X3	Y3	Z3	X4	Y4	Z4	X5	Y5	Z5	X6	Y6	Z6	X7	Y7	Z7	X8	Y8	Z8	X9	Y9	Z9	X10	Y10	Z10	X11	Y11	Z11	X12	Y12	Z12	X13	Y13	Z13	X14	Y14	Z14	X15	Y15	Z15	X16	Y16	Z16	X17	Y17	Z17	X18	Y18	Z18	X19	Y19	Z19	X20	Y20	Z20	X21	Y21	Z21	X22	Y22	Z22	X23	Y23	Z23	X24	Y24	Z24	X25	Y25	Z25	X26	Y26	Z26	X27	Y27	Z27	X28	Y28	Z28	X29	Y29	Z29	X30	Y30	Z30	X31	Y31	Z31	X32	Y32	Z32	X33	Y33	Z33	X34	Y34	Z34	X35	Y35	Z35	X36	Y36	Z36	X37	Y37	Z37	X38	Y38	Z38	X39	Y39	Z39	X40	Y40	Z40	X41	Y41	Z41	X42	Y42	Z42	X43	Y43	Z43	X44	Y44	Z44	X45	Y45	Z45	X46	Y46	Z46	X47	Y47	Z47	X48	Y48	Z48	X49	Y49	Z49	X50	Y50	Z50	X51	Y51	Z51	X52	Y52	Z52	X53	Y53	Z53	X54	Y54	Z54	X55	Y55	Z55	X56	Y56	Z56	X57	Y57	Z57	X58	Y58	Z58	X59	Y59	Z59	X60	Y60	Z60	X61	Y61	Z61	X62	Y62	Z62	X63	Y63	Z63	X64	Y64	Z64	X65	Y65	Z65	X66	Y66	Z66	X67	Y67	Z67	X68	Y68	Z68	X69	Y69	Z69	X70	Y70	Z70	X71	Y71	Z71	X72	Y72	Z72	X73	Y73	Z73	X74	Y74	Z74	X75	Y75	Z75	X76	Y76	Z76	X77	Y77	Z77	X78	Y78	Z78	X79	Y79	Z79	X80	Y80	Z80	X81	Y81	Z81	X82	Y82	Z82	X83	Y83	Z83	X84	Y84	Z84	X85	Y85	Z85	X86	Y86	Z86	X87	Y87	Z87	X88	Y88	Z88	X89	Y89	Z89	X90	Y90	Z90	X91	Y91	Z91	X92	Y92	Z92	X93	Y93	Z93	X94	Y94	Z94	X95	Y95	Z95	X96	Y96	Z96	X97	Y97	Z97	X98	Y98	Z98	X99	Y99	Z99	X100	Y100	Z100	X101	Y101	Z101	X102	Y102	Z102	X103	Y103	Z103	X104	Y104	Z104	X105	Y105	Z105	X106	Y106	Z106	X107	Y107	Z107	X108	Y108	Z108	X109	Y109	Z109	X110	Y110	Z110	X111	Y111	Z111	X112	Y112	Z112	X113	Y113	Z113	X114	Y114	Z114	X115	Y115	Z115	X116	Y116	Z116	X117	Y117	Z117	X118	Y118	Z118	X119	Y119	Z119	X120	Y120	Z120	X121	Y121	Z121	X122	Y122	Z122	X123	Y123	Z123	X124	Y124	Z124	X125	Y125	Z125	X126	Y126	Z126	X127	Y127	Z127	X128	Y128	Z128	X129	Y129	Z129	X130	Y130	Z130	X131	Y131	Z131	X132	Y132	Z132	X133	Y133	Z133	X134	Y134	Z134	X135	Y135	Z135	X136	Y136	Z136	X137	Y137	Z137	X138	Y138	Z138	X139	Y139	Z139	X140	Y140	Z140	X141	Y141	Z141	X142	Y142	Z142	X143	Y143	Z143	X144	Y144	Z144	X145	Y145	Z145	X146	Y146	Z146	X147	Y147	Z147	X148	Y148	Z148	X149	Y149	Z149	X150	Y150	Z150	X151	Y151	Z151	X152	Y152	Z152	X153	Y153	Z153	X154	Y154	Z154	X155	Y155	Z155	X156	Y156	Z156	X157	Y157	Z157	X158	Y158	Z158	X159	Y159	Z159	X160	Y160	Z160	X161	Y161	Z161	X162	Y162	Z162	X163	Y163	Z163	X164	Y164	Z164	X165	Y165	Z165	X166	Y166	Z166	X167	Y167	Z167	X168	Y168	Z168	X169	Y169	Z169	X170	Y170	Z170	X171	Y171	Z171	X172	Y172	Z172	X173	Y173	Z173	X174	Y174	Z174	X175	Y175	Z175	X176	Y176	Z176	X177	Y177	Z177	X178	Y178	Z178	X179	Y179	Z179	X180	Y180	Z180	X181	Y181	Z181	X182	Y182	Z182	X183	Y183	Z183	X184	Y184	Z184	X185	Y185	Z185	X186	Y186	Z186	X187	Y187	Z187	X188	Y188	Z188	X189	Y189	Z189	X190	Y190	Z190	X191	Y191	Z191	X192	Y192	Z192	X193	Y193	Z193	X194	Y194	Z194	X195	Y195	Z195	X196	Y196	Z196	X197	Y197	Z197	X198	Y198	Z198	X199	Y199	Z199	X200	Y200	Z200	X201	Y201	Z201	X202	Y202	Z202	X203	Y203	Z203	X204	Y204	Z204	X205	Y205	Z205	X206	Y206	Z206	X207	Y207	Z207	X208	Y208	Z208	X209	Y209	Z209	X210	Y210	Z210	X211	Y211	Z211	X212	Y212	Z212	X213	Y213	Z213	X214	Y214	Z214	X215	Y215	Z215	X216	Y216	Z216	X217	Y217	Z217	X218	Y218	Z218	X219	Y219	Z219	X220	Y220	Z220	X221	Y221	Z221	X222	Y222	Z222	X223	Y223	Z223	X224	Y224	Z224	X225	Y225	Z225	X226	Y226	Z226	X227	Y227	Z227	X228	Y228	Z228	X229	Y229	Z229	X230	Y230	Z230	X231	Y231	Z231
																																																																																																																																																																																																																																																																																																																																																																																																																																																																																																																																																																																																																																																																																																																						
113	0.746666667	-334.5249023	1545.655396	1298.716797	-333.2569885	1521.625366	1159.429565	-461.2608337	1542.88208	1306.829102	-484.1638794	1518.21936	1180.991211	-400.7254028	1406.274048	1149.322266	-393.5676575	1225.856934	1086.552856	-406.4700317	1338.797852	1266.670288	-407.4368591	1302.444946	1287.281372	-508.2229004	1267.422974	1077.313354	-254.2490387	1379.960571	1182.127563	-145.9886169	1189.538452	1152.276611	-88.414711	1114.015015	1172.529907	-41.94273758	1070.809082	1193.493408	48.19515991	940.2665405	1269.564087	22.19079971	948.569458	1333.808105	77.81633759	899.7523804	1350.977417	-554.684021	1367.650269	1176.035645	-622.7401123	1281.570679	1157.089478	-694.3422852	1092.609619	1146.592651	-817.3984985	951.8393555	1203.21814	-842.9215698	909.7133179	1221.348145	-842.4180908	935.1966553	1287.106201	-900.7504883	883.5010986	1296.711182	-393.8380127	971.7458496	1082.494751	-254.2227173	934.102478	1268.921509	-540.4616699	934.135376	1260.146973	-206.3886261	643.5541992	1238.596558	-191.1383972	553.4402466	1156.787109	-235.4080658	566.8140869	1292.538208	-202.9284821	258.292572	1179.114136	-188.1628418	179.7987823	1086.940308	-227.6373138	178.4598846	1223.557373	-275.5921326	39.42091751	1091.234619	-226.2666168	38.8836937	1252.056763	-583.7598267	660.947998	1197.704102	-555.2814941	589.7230225	1100.27063	-582.7209473	572.0975342	1240.398193	-577.0516968	267.6498718	1153.728882	-555.1436768	203.1267853	1053.643311	-571.2667847	182.3900299	1193.424927	-495.2187195	41.36043167	1085.186279	-539.8689575	39.88116837	1246.290649	-395.3167419	848.701355	1199.119385	-395.7706604	845.642395	1213.913574	-382.7277527	848.6998901	1199.505371	-396.0835876	972.0437622	1224.599121	-393.5600281	959.6101685	1141.249878	-393.7490845	958.3355713	1147.414063	-387.2655334	959.609436	1141.442749	-393.9433899	1021.281311	1153.989868	-281.582428	469.6358643	1218.528564	-274.8272095	472.2680054	1256.126465	-244.2363586	474.315918	1211.490967	-332.3740845	848.7570801	1201.112915	-498.7137146	473.8829956	1206.600098	-505.8726501	475.5906677	1243.580811	-461.9153442	470.0952759	1213.898682	-458.2595825	848.645752	1197.125854	-266.4613342	45.4763298	1149.563599	-248.4309845	40.67765427	1183.030518	-231.553009	49.68063354	1131.359497	-280.3847351	436.039093	1213.065918	-505.4380798	50.51492691	1142.213501	-521.1208496	45.31811142	1178.022583	-469.2592468	47.595047	1157.634521	-499.2463379	440.3488464	1201.500122	-227.0063019	49.21843338	1252.774902	-227.958786	62.52625275	1253.699707	-214.260498	50.39990997	1248.900757	-266.3735352	55.27284622	1125.10498	-539.5175171	50.04416275	1247.25	-539.0618896	63.21945953	1248.493652	-526.7435303	49.2810936	1250.653809	-504.9337769	60.87034607	1119.888062	-214.0815735	47.57715225	1294.795898	-214.3823547	51.77962494	1295.088013	-210.0565948	47.95026398	1293.57251	-226.5131836	49.48944092	1254.479126	-550.8817749	46.82956696	1289.178101	-550.737854	50.99018097	1289.570801	-546.8478394	46.5885582	1290.25293	-539.9609985	50.24824905	1248.958374	-410.3050842	1443.477539	1128.776489	-392.2351074	1484.146606	1350.214233	-185.3526306	1449.315796	1109.347412	-419.5272827	1665.574585	1088.738892	-257.8556213	1333.171021	1179.532349	-178.320282	1318.826538	1327.620728	-244.9098053	1501.121826	1188.8479	-406.0728149	1340.142944	1259.812256	-546.8826904	1321.378906	1173.371826	-630.9196777	1299.050415	1315.113525	-519.2814941	1157.669312	1163.947144	-406.0728149	1340.142944	1259.812256	-406.0728149	1340.142944	1259.812256	-415.5773315	1307.956665	1423.912476	-573.2339478	1337.358032	1249.584229	-401.3789673	1175.791382	1227.848511	-120.4416656	1095.547729	1171.034668	-210.1559601	1052.822876	915.0159302	-340.6424561	964.668457	1270.03894	-257.8555908	1333.171021	1179.532471	30.85174942	939.0302124	1300.625244	35.81225586	791.6713867	1116.856201	-158.0619659	826.7468262	1385.5625	-109.8511353	1084.591553	1180.105957	97.42357635	834.4865723	1391.470581	209.6813049	934.2516479	1424.015991	178.5436249	782.2216797	1271.879761	30.85176849	939.0302124	1300.625244	-662.2380371	1076.799805	1155.99292	-503.4894104	1016.939819	944.7028198	-849.1065674	1176.927979	987.2258911	-546.8827515	1321.378906	1173.371826	-837.7377319	917.81073	1255.989258	-780.0119629	752.0268555	1093.713623	-1002.597107	1006.145996	1107.099365	-674.5229492	1065.670532	1162.992676	-933.7967529	825.4445801	1345.120117	-1058.084595	920.18927	1309.355103	-901.7288208	915.9713135	1473.493408	-837.7377319	917.81073	1255.989258	-0.34887138	1.720843434	-11.67179966	0.34887138	-1.720843434	-11.67179966	-4.273672581	-17.11917496	-2.714934349	-2.042828083	-15.13968277	-4.85874939	7.706180573	-12.02255058	-14.07113552	6.105202675	-9.243919373	-13.31377697	-3.255533695	-16.47372246	-12.67629814	-3.145872116	-11.50198174	-10.92456722	0.645853937	10.61388874	-5.728216171	0.311152786	8.195914268	-3.456454039	3.43E-15	1.59E-15	7.95E-16	-2.14E-15	1.19E-15	2.39E-15	5.72E-16	0	-9.340459824	5.38E-16	0	-8.782514572	1.086550593	-8.382735252	21.19802856	-1.086550593	8.382735252	21.19802856	-1.292653561	1.515339732	0.593786836	1.292653561	-1.515339732	0.593786836	-29.07191467	-29.54672623	-6.174726963	3.74E-15	-1.71E-12	-35.15867233	10.95172501	123.4899979	-1.545847654	-26.60640335	-40.38851166	-7.744976044	3.70E-15	-1.18E-12	-34.51815796	8.392080307	115.6341858	-7.114500999	1.605842113	-3.254243851	-11.00573063	-1.605842113	3.254243851	-11.00573063	2.340073347	4.59262228	-10.21901608	-2.340073347	-4.59262228	-10.21901608	-8.27E-21	-0.000135105	-5.07E-37	1.84E-22	3.01E-06	1.13E-38	1.94E-21	3.16E-05	1.19E-37	1.19E-20	0.000194531	7.29E-37	-3.58E-21	-5.84E-05	-2.19E-37	2.32E-21	3.78E-05	1.42E-37	4.81E-20	0.000785999	2.95E-36	4.81E-20	0.000785999	2.95E-36	5.59E-19	0.009136491	3.43E-35	5.59E-19	0.009136491	3.43E-35	6.70E-21	0.000109478	4.10E-37	6.69E-21	0.000109198	4.09E-37	-5.91E-23	-9.64E-07	-3.62E-39	-2.52E-22	-4.12E-06	-1.54E-38	-2.77E-22	-4.52E-06	-1.69E-38	-5.46E-21	-8.92E-05	-3.35E-37	-398.0210266	1.304700017	259.0899963	-231.4150085	1.697000027	-251.3170013	-396.9869995	4.582600117	-949.9620361	0	0	0	0	0	0	-0.193522543	1.563876748	-0.108356617	0.158407912	1.569770932	-0.071113706	-0.063609883	0.590297878	0.07485947	0.044298653	0.591494024	0.078922316	-0.012572418	-0.006428009	0.141539469	0.008198231	-0.01163023	0.141532004	-0.000598942	4.45747757	0.92302829	-0.000598942	4.45747757	0.92302829	-0.150718704	8.847476006	1.737583518	-0.150718704	8.847476006	1.737583518	0.23415722	0.424603999	0.075994723	-0.181758434	0.442643791	0.10811995	0.103084616	0.133466035	0.134983554	-0.080123335	0.1335527	0.149557933	0.020003472	0.040087465	-0.038272221	-0.033094205	0.033994775	-0.034907918	0	0	0	0	0	0	0	0	0	0	0	0	-59.28577423	-2.550019503	12.63603687	-46.53990173	-1.696489692	4.12369442	-15.17550087	0.802632511	10.41024494	-10.48634911	0.54535234	11.39759541	-1.303314805	0.733046889	7.586237431	-0.934453249	0.513746917	7.543545246	-13.88040638	-2.856565952	-74.30742645	13.88040638	2.856565952	-74.30742645	-80.737854	-31.57643509	931.3959351	80.737854	31.57643509	931.3959351	-57.24237061	-9.87100029	36.4921875	-44.18650055	-7.849900246	45.26077271	-16.50061798	-0.451635033	22.19304466	-13.08980465	-0.524712384	25.1955471	-1.167904973	-2.19E-15	-2.231454134	-2.009100199	1.74E-15	-2.122800589	-226.8503265	480.0048523	1207.968994	-552.6452637	482.0779419	1195.781372	-230.6339722	46.55479431	1130.416138	-541.7254028	47.10103989	1125.825928	-281.582428	469.6358643	1218.528687	-498.7137146	473.8829956	1206.600098	-266.6110535	49.67592621	1150.24646	-505.371582	54.70668793	1142.850952	-194.9400024	673.2365723	1188.708008	-588.8816528	672.6275024	1179.967407	-168.6980438	253.3706055	1126.702515	-610.8787231	254.1915436	1125.593994	-398.0210266	1.304700017	259.0899963	-231.4150085	1.697000027	-251.3170013	-396.9869995	4.582600117	-949.9620361	-397.7437744	934.2160034	1237.061646	-397.7437744	2.44E-14	1237.061646	0	0	0	0	0	0	0	0	0	0	0	0	-332.3739319	848.757019	1201.113037	-458.2595215	848.6456909	1197.125732	-0.193522543	1.563876629	-0.108356617
114	0.753333333	-334.5321655	1545.658813	1298.717773	-333.270752	1521.628174	1159.430542	-461.2689514	1542.87854	1306.841553	-484.1789551	1518.213135	1181.004639	-400.7374878	1406.27063	1149.331055	-393.5780945	1225.848999	1086.572388	-406.4682007	1338.803101	1266.680908	-407.4316406	1302.451172	1287.296509	-508.234375	1267.410156	1077.336792	-254.2553253	1379.966797	1182.125854	-145.9875336	1189.550659	1152.271484	-88.40823364	1114.030273	1172.52356	-41.92994308	1070.827271	1193.482178	48.2227478	940.2929077	1269.549805	22.22982788	948.6018066	1333.79895	77.85791779	899.7861938	1350.962036	-554.6906128	1367.642456	1176.057861	-622.7471924	1281.55957	1157.125732	-694.3433228	1092.591187	1146.648071	-817.3916626	951.8268433	1203.292725	-842.9101563	909.7025757	1221.426514	-842.3999634	935.1870728	1287.185059	-900.72229	883.4776001	1296.79834	-393.8408508	971.7457886	1082.527588	-254.2164459	934.1029053	1268.949341	-540.4542236	934.1326294	1260.187134	-206.3834686	643.5518799	1238.617554	-191.136795	553.4408569	1156.803223	-235.4002838	566.8099365	1292.557739	-202.9274139	258.2918091	1179.121338	-188.1638794	179.8008728	1086.94519	-227.6354675	178.457489	1223.562622	-275.5943604	39.421875	1091.235596	-226.2656097	38.88328171	1252.057251	-583.7581787	660.9447021	1197.737671	-555.2857666	589.7240601	1100.297363	-582.7178955	572.0940552	1240.427246	-577.0498047	267.6501465	1153.740723	-555.1432495	203.1320648	1053.652954	-571.2665405	182.3882599	1193.433838	-495.2185974	41.36161423	1085.188354	-539.8685913	39.88145065	1246.292236	-395.3117065	848.7005005	1199.152954	-395.7649231	845.6414795	1213.947021	-382.7227173	848.6992188	1199.53833	-396.0790405	972.0427856	1224.633301	-393.5587463	959.6095581	1141.283813	-393.7475586	958.3349609	1147.447998	-387.2642517	959.6089478	1141.47644	-393.9425354	1021.280701	1154.024048	-281.5778198	469.6342163	1218.545776	-274.8209534	472.2651978	1256.143555	-244.2319641	474.3143311	1211.506714	-332.3688354	848.756958	1201.143799	-498.7128296	473.8785706	1206.617065	-505.8695679	475.5841675	1243.598511	-461.9138184	470.0899658	1213.913208	-458.2545776	848.644104	1197.162231	-266.4613342	45.47652054	1149.566162	-248.4303284	40.67658615	1183.032471	-231.5533142	49.68118286	1131.36145	-280.3804626	436.0374756	1213.082031	-505.4403992	50.51425552	1142.217285	-521.1231689	45.31645966	1178.025879	-469.2617798	47.59361267	1157.638184	-499.2457581	440.3448181	1201.516113	-227.0052948	49.21801376	1252.775513	-227.9577637	62.5258255	1253.700317	-214.2595673	50.39951324	1248.901123	-266.3747864	55.27271271	1125.106201	-539.5169678	50.04443741	1247.251587	-539.0610962	63.21972656	1248.495239	-526.7429199	49.28118134	1250.655151	-504.9353027	60.8700943	1119.88916	-214.0799408	47.57641983	1294.796265	-214.3807678	51.77888107	1295.088379	-210.0549927	47.94957352	1293.572876	-226.5119476	49.48886871	1254.479614	-550.8804932	46.83003616	1289.17981	-550.7365723	50.99065781	1289.572632	-546.8466187	46.58900452	1290.254639	-539.9599609	50.24908829	1248.960083	-410.3172913	1443.475464	1128.784668	-392.2359924	1484.147217	1350.221069	-185.3664398	1449.327637	1109.341553	-419.5558472	1665.571655	1088.745972	-257.8599243	1333.177002	1179.53418	-178.3146973	1318.846558	1327.617798	-244.9212952	1501.128174	1188.837036	-406.0716553	1340.147705	1259.822754	-546.8875122	1321.371216	1173.396851	-630.9103394	1299.049805	1315.146729	-519.2802124	1157.663208	1163.982056	-406.0716553	1340.147705	1259.822754	-406.0716858	1340.147705	1259.822754	-415.5595093	1307.973267	1423.925293	-573.232605	1337.355225	1249.610596	-401.3740845	1175.7948	1227.870728	-120.4343643	1095.561157	1171.033569	-210.179184	1052.81543	915.0297852	-340.6146851	964.6763306	1270.074341	-257.8599243	1333.177002	1179.53418	30.88495636	939.0593872	1300.614868	35.82965469	791.6888428	1116.853638	-158.0122681	826.7705688	1385.583984	-109.8419876	1084.606079	1180.10437	97.47173309	834.524231	1391.457275	209.7354584	934.2905884	1423.9729	178.5691376	782.2478027	1271.857422	30.88491821	939.0593262	1300.614868	-662.237915	1076.783203	1156.047607	-503.4984131	1016.907715	944.75	-849.1229858	1176.891357	987.2805786	-546.8875122	1321.371216	1173.396851	-837.7227173	917.8005981	1256.067383	-780.0026855	752.0071411	1093.806519	-1002.591064	1006.115112	1107.182617	-674.5219116	1065.654419	1163.049072	-933.7498169	825.4123535	1345.209351	-1058.062012	920.1326904	1309.465332	-901.6816406	915.9417114	1473.580566	-837.7227173	917.8006592	1256.067383	-0.349003971	1.718305826	-11.67207432	0.349003971	-1.718305826	-11.67207432	-4.273744106	-17.1200428	-2.715376139	-2.043839693	-15.13872814	-4.858464718	7.705290794	-12.02266121	-14.06968594	6.106569767	-9.242918015	-13.31085587	-3.255507946	-16.47234726	-12.67645931	-3.146896839	-11.50554276	-10.92329597	0.646053314	10.61404896	-5.729831696	0.311394215	8.196953773	-3.458436012	2.88E-15	1.59E-15	7.95E-16	-4.82E-15	1.19E-15	7.95E-16	5.72E-16	0	-9.342004776	5.38E-16	0	-8.784314156	1.084709048	-8.381152153	21.19439697	-1.084709048	8.381152153	21.19439697	-1.294005513	1.512028456	0.598180294	1.294005513	-1.512028456	0.598180294	-29.07241058	-29.54826927	-6.173070431	-1.03E-15	1.77E-12	-35.158638	10.95259953	123.4852142	-1.545432448	-26.60684204	-40.39066696	-7.745221138	5.23E-16	-3.06E-12	-34.51800537	8.4007864	115.6370544	-7.104986191	1.607143521	-3.248533964	-11.00166893	-1.607143521	3.248533964	-11.00166893	2.344199896	4.595486641	-10.21929359	-2.344199896	-4.595486641	-10.21929359	-8.65E-21	-0.000141217	-5.29E-37	3.56E-22	5.81E-06	2.18E-38	1.95E-21	3.18E-05	1.19E-37	1.23E-20	0.000200357	7.51E-37	-3.60E-21	-5.88E-05	-2.20E-37	2.33E-21	3.81E-05	1.43E-37	4.85E-20	0.000792324	2.97E-36	4.85E-20	0.000792324	2.97E-36	5.67E-19	0.009265433	3.47E-35	5.67E-19	0.009265433	3.47E-35	6.98E-21	0.000113962	4.27E-37	7.69E-21	0.000125603	4.71E-37	-8.62E-23	-1.41E-06	-5.28E-39	-8.69E-22	-1.42E-05	-5.32E-38	-2.95E-22	-4.81E-06	-1.80E-38	-5.69E-21	-9.30E-05	-3.49E-37	-398.0210266	1.304700017	259.0899963	-231.4150085	1.697000027	-251.3170013	-396.9869995	4.582600117	-949.9620361	0	0	0	0	0	0	-0.193524852	1.563880324	-0.108312055	0.158440799	1.569774032	-0.071034648	-0.063614927	0.590295196	0.074878119	0.044307798	0.591492593	0.078935459	-0.012573145	-0.006428951	0.141539305	0.008199926	-0.011629433	0.141532063	-0.000649219	4.457472801	0.923051417	-0.000649219	4.457472801	0.923051417	-0.151125267	8.847595215	1.736959815	-0.151125267	8.847595215	1.736959815	0.234167203	0.424591541	0.076032355	-0.181726366	0.442653924	0.108146861	0.103088707	0.133452088	0.134993896	-0.080113582	0.133550838	0.149569109	0.020008292	0.040084392	-0.038272638	-0.033092715	0.034004256	-0.034902021	0	0	0	0	0	0	0	0	0	0	0	0	-59.28671646	-2.550277472	12.62059784	-46.54831314	-1.696763992	4.100457668	-15.17681408	0.802692652	10.41497326	-10.48834419	0.54542613	11.40109634	-1.303308249	0.733083308	7.58610487	-0.934451282	0.513819635	7.543338776	-13.87570477	-2.855416298	-74.35330963	13.87570477	2.855416298	-74.35330963	-80.84745789	-31.63547516	931.5849609	80.84745789	31.63547516	931.5849609	-57.24462128	-9.871409416	36.50087738	-44.18047333	-7.849370003	45.26645279	-16.50124931	-0.451700032	22.19499207	-13.0886898	-0.524868429	25.1962719	-1.168277144	-6.99E-16	-2.23146677	-2.008934975	4.76E-15	-2.122426987	-226.8462372	480.0037842	1207.984131	-552.6449585	482.0745544	1195.802002	-230.6343536	46.55544662	1130.418091	-541.7277832	47.10167694	1125.829468	-281.5778198	469.6342468	1218.545776	-498.7128296	473.8785706	1206.616943	-266.6110229	49.67610168	1150.249146	-505.3737793	54.70598602	1142.85498	-194.935791	673.2359009	1188.727417	-588.8807983	672.6271362	1180.001099	-168.6968689	253.3710327	1126.710083	-610.8789063	254.1914215	1125.604126	-398.0210266	1.304700017	259.0899963	-231.4150085	1.697000027	-251.3170013	-396.9869995	4.582600117	-949.9620361	-397.7410583	934.2172852	1237.077637	-397.7410583	2.44E-14	1237.077637	0	0	0	0	0	0	0	0	0	0	0	0	-332.3688354	848.7568359	1201.143799	-458.2545776	848.6442261	1197.161987	-0.193524852	1.563880205	-0.108312055
